<?xml version="1.0" encoding="UTF-8" standalone="no"?>
<!-- Created with Inkscape (http://www.inkscape.org/) -->

<svg
   width="12.295189in"
   height="4.8300858in"
   viewBox="0 0 312.2978 122.68418"
   version="1.1"
   id="svg1"
   inkscape:version="1.4.2 (f4327f4, 2025-05-13)"
   sodipodi:docname="OEDA Horizontal Dark.svg"
   inkscape:export-filename="OEDA Horizontal Dark 1161x456.png"
   inkscape:export-xdpi="94.410004"
   inkscape:export-ydpi="94.410004"
   xmlns:inkscape="http://www.inkscape.org/namespaces/inkscape"
   xmlns:sodipodi="http://sodipodi.sourceforge.net/DTD/sodipodi-0.dtd"
   xmlns="http://www.w3.org/2000/svg"
   xmlns:svg="http://www.w3.org/2000/svg">
  <sodipodi:namedview
     id="namedview1"
     pagecolor="#414042"
     bordercolor="#000000"
     borderopacity="0.25"
     inkscape:showpageshadow="2"
     inkscape:pageopacity="0.0"
     inkscape:pagecheckerboard="0"
     inkscape:deskcolor="#d1d1d1"
     inkscape:document-units="px"
     showguides="true"
     inkscape:zoom="1.1055804"
     inkscape:cx="715.00906"
     inkscape:cy="307.07853"
     inkscape:window-width="2560"
     inkscape:window-height="1377"
     inkscape:window-x="-8"
     inkscape:window-y="-8"
     inkscape:window-maximized="1"
     inkscape:current-layer="layer1" />
  <defs
     id="defs1" />
  <g
     inkscape:label="Layer 1"
     inkscape:groupmode="layer"
     id="layer1"
     transform="translate(11.381275,-46.607873)">
    <text
       xml:space="preserve"
       style="font-size:25.4px;line-height:1;text-align:start;writing-mode:lr-tb;direction:ltr;text-anchor:start;fill:#ffffff;fill-opacity:1;stroke:#ecd263;stroke-width:5.29167;stroke-linejoin:round;stroke-dasharray:none;stroke-opacity:1"
       x="139.7"
       y="76.009445"
       id="text47-8"><tspan
         sodipodi:role="line"
         style="font-style:normal;font-variant:normal;font-weight:800;font-stretch:normal;font-size:25.4px;line-height:1;font-family:'Noto Sans';-inkscape-font-specification:'Noto Sans Ultra-Bold';text-align:start;text-anchor:start;fill:#ffffff;fill-opacity:1;stroke:none;stroke-width:5.29167"
         x="139.7"
         y="76.009445"
         id="tspan5-4"
         dx="0.039999999">Ore<tspan
   style="line-height:1;letter-spacing:0px;fill:#ffffff;fill-opacity:1"
   id="tspan5">go</tspan>n</tspan><tspan
         sodipodi:role="line"
         style="font-style:normal;font-variant:normal;font-weight:800;font-stretch:normal;font-size:25.4px;line-height:1;font-family:'Noto Sans';-inkscape-font-specification:'Noto Sans Ultra-Bold';text-align:start;text-anchor:start;fill:#ffffff;fill-opacity:1;stroke:none;stroke-width:5.29167"
         x="139.7"
         y="101.40945"
         id="tspan103">Enterprise</tspan><tspan
         sodipodi:role="line"
         style="font-style:normal;font-variant:normal;font-weight:800;font-stretch:normal;font-size:25.4px;line-height:1;font-family:'Noto Sans';-inkscape-font-specification:'Noto Sans Ultra-Bold';text-align:start;text-anchor:start;fill:#ffffff;fill-opacity:1;stroke:none;stroke-width:5.29167"
         x="139.7"
         y="126.80945"
         id="tspan104">Data</tspan><tspan
         sodipodi:role="line"
         style="font-style:normal;font-variant:normal;font-weight:800;font-stretch:normal;font-size:25.4px;line-height:1;font-family:'Noto Sans';-inkscape-font-specification:'Noto Sans Ultra-Bold';text-align:start;text-anchor:start;fill:#ffffff;fill-opacity:1;stroke:none;stroke-width:5.29167"
         x="139.7"
         y="152.20944"
         id="tspan105">Analytics</tspan></text>
    <path
       id="path3"
       style="baseline-shift:baseline;display:inline;overflow:visible;vector-effect:none;fill:#ffffff;stroke-width:0.651537;stroke-linejoin:round;enable-background:accumulate;stop-color:#000000;fill-opacity:1"
       d="m 74.493587,49.569177 a 2.6460986,2.6460986 0 0 0 -1.32292,0.3545 l -25.6558,14.812016 a 2.6460986,2.6460986 0 0 0 -1.32343,2.29185 v 29.624548 a 2.6460986,2.6460986 0 0 0 1.32343,2.29185 l 3.96462,2.288749 v -8.99325 l 0.004,0.0021 V 68.554581 l 23.01099,-13.284977 23.00997,13.284977 v 26.570471 l -6.78512,3.917591 5.29167,3.055107 5.462723,-3.153809 a 2.6460986,2.6460986 0 0 0 1.32343,-2.29185 V 67.027543 a 2.6460986,2.6460986 0 0 0 -1.32343,-2.29185 L 75.816497,49.923677 a 2.6460986,2.6460986 0 0 0 -1.32291,-0.3545 z m -17.72244,48.608919 v 6.110224 l 16.39952,9.46815 a 2.6460986,2.6460986 0 0 0 2.64583,0 l 14.90349,-8.60464 -5.29115,-3.05459 -10.93474,6.31331 z" />
    <path
       id="path13"
       style="baseline-shift:baseline;display:inline;overflow:visible;vector-effect:none;fill:#b4dcf5;stroke-width:0.651537;stroke-linejoin:round;enable-background:accumulate;stop-color:#000000;fill-opacity:1"
       d="m 43.899067,101.78924 a 2.6460986,2.6460986 0 0 0 -1.3224,0.3545 l -25.655796,14.81202 a 2.6460986,2.6460986 0 0 0 -1.323433,2.29185 v 29.62455 a 2.6460986,2.6460986 0 0 0 1.323433,2.29185 l 25.655796,14.81253 a 2.6460986,2.6460986 0 0 0 2.64532,0 l 25.65683,-14.81253 a 2.6460986,2.6460986 0 0 0 1.32343,-2.29185 v -4.56561 l -8.14524,4.70255 v -0.0165 l -20.1569,11.63805 -23.01152,-13.2855 v -26.5705 l 23.01152,-13.28498 7.57938,4.37596 v -6.10918 l -6.2575,-3.61271 a 2.6460986,2.6460986 0 0 0 -1.32292,-0.3545 z m 12.87208,7.0218 v 6.1097 l 10.13892,5.85391 v 20.4773 l 5.29218,-3.05562 v -18.94872 a 2.6460986,2.6460986 0 0 0 -1.32343,-2.29185 z" />
    <path
       id="path15"
       style="baseline-shift:baseline;display:inline;overflow:visible;vector-effect:none;fill:#86c679;stroke-width:0.651537;stroke-linejoin:round;enable-background:accumulate;stop-color:#000000"
       d="m 105.36405,101.76547 a 2.6460986,2.6460986 0 0 0 -1.32291,0.3545 l -3.99562,2.30684 5.29115,3.05511 0.0279,-0.016 23.00997,13.28498 v 26.57047 l -23.00997,13.2855 -23.011003,-13.2855 v -8.87491 l -5.29115,3.0546 v 7.34735 a 2.6460986,2.6460986 0 0 0 1.32344,2.29185 l 25.655283,14.81253 a 2.6460986,2.6460986 0 0 0 2.64583,0 l 25.65683,-14.81253 a 2.6460986,2.6460986 0 0 0 1.32344,-2.29185 v -29.62455 a 2.6460986,2.6460986 0 0 0 -1.32344,-2.29185 l -25.65683,-14.81202 a 2.6460986,2.6460986 0 0 0 -1.32292,-0.3545 z m -10.609173,5.71593 -16.36902,9.45059 a 2.6460986,2.6460986 0 0 0 -1.32344,2.29185 v 16.16646 l 5.29115,-3.05511 v -11.58431 l 17.692463,-10.21437 z" />
  </g>
</svg>
