<?xml version="1.0" encoding="UTF-8" standalone="no"?>
<!-- Created with Inkscape (http://www.inkscape.org/) -->

<svg
   width="6.7410555in"
   height="7.6922483in"
   viewBox="0 0 171.22281 195.38311"
   version="1.1"
   id="svg1"
   inkscape:version="1.4.2 (f4327f4, 2025-05-13)"
   sodipodi:docname="OEDA_Logo_Vertical_Dark.svg"
   inkscape:export-filename="OEDA Logo Primary.png"
   inkscape:export-xdpi="59.337887"
   inkscape:export-ydpi="59.337887"
   xmlns:inkscape="http://www.inkscape.org/namespaces/inkscape"
   xmlns:sodipodi="http://sodipodi.sourceforge.net/DTD/sodipodi-0.dtd"
   xmlns="http://www.w3.org/2000/svg"
   xmlns:svg="http://www.w3.org/2000/svg">
  <sodipodi:namedview
     id="namedview1"
     pagecolor="#414042"
     bordercolor="#000000"
     borderopacity="0.25"
     inkscape:showpageshadow="2"
     inkscape:pageopacity="0.0"
     inkscape:pagecheckerboard="0"
     inkscape:deskcolor="#d1d1d1"
     inkscape:document-units="px"
     showguides="true"
     inkscape:zoom="1.1055804"
     inkscape:cx="213.91479"
     inkscape:cy="395.71975"
     inkscape:window-width="2560"
     inkscape:window-height="1377"
     inkscape:window-x="-8"
     inkscape:window-y="-8"
     inkscape:window-maximized="1"
     inkscape:current-layer="layer1" />
  <defs
     id="defs1" />
  <g
     inkscape:label="Layer 1"
     inkscape:groupmode="layer"
     id="layer1"
     transform="translate(-53.950407,-3.8428104)">
    <path
       id="path3"
       style="baseline-shift:baseline;display:inline;overflow:visible;vector-effect:none;fill:#ffffff;stroke-width:0.651537;stroke-linejoin:round;enable-background:accumulate;stop-color:#000000;fill-opacity:1"
       d="m 139.56151,23.470919 a 2.6460986,2.6460986 0 0 0 -1.32292,0.3545 l -25.6558,14.812016 a 2.6460986,2.6460986 0 0 0 -1.32343,2.29185 v 29.624548 a 2.6460986,2.6460986 0 0 0 1.32343,2.29185 l 3.96462,2.288749 v -8.99325 l 0.004,0.0021 V 42.456323 l 23.01099,-13.284977 23.00997,13.284977 v 26.570471 l -6.78512,3.917591 5.29167,3.05511 5.46272,-3.153812 a 2.6460986,2.6460986 0 0 0 1.32343,-2.29185 V 40.929285 a 2.6460986,2.6460986 0 0 0 -1.32343,-2.29185 L 140.88442,23.825419 a 2.6460986,2.6460986 0 0 0 -1.32291,-0.3545 z m -17.72244,48.608919 v 6.110221 l 16.39952,9.468156 a 2.6460986,2.6460986 0 0 0 2.64583,0 l 14.90349,-8.604642 -5.29115,-3.054594 -10.93474,6.313309 z" />
    <path
       id="path13"
       style="baseline-shift:baseline;display:inline;overflow:visible;vector-effect:none;fill:#b4dcf5;stroke-width:0.651537;stroke-linejoin:round;enable-background:accumulate;stop-color:#000000;fill-opacity:1"
       d="m 108.96699,75.690987 a 2.6460986,2.6460986 0 0 0 -1.3224,0.3545 L 81.988794,90.857503 a 2.6460986,2.6460986 0 0 0 -1.323433,2.29185 V 122.7739 a 2.6460986,2.6460986 0 0 0 1.323433,2.29185 l 25.655796,14.81253 a 2.6460986,2.6460986 0 0 0 2.64532,0 l 25.65683,-14.81253 a 2.6460986,2.6460986 0 0 0 1.32343,-2.29185 v -4.56561 l -8.14524,4.70255 v -0.0165 l -20.1569,11.63805 -23.01152,-13.2855 V 94.676392 l 23.01152,-13.284978 7.57938,4.375961 v -6.109188 l -6.2575,-3.6127 a 2.6460986,2.6460986 0 0 0 -1.32292,-0.3545 z m 12.87208,7.021794 v 6.109704 l 10.13892,5.853907 v 20.477298 l 5.29218,-3.05562 V 93.149353 a 2.6460986,2.6460986 0 0 0 -1.32343,-2.29185 z" />
    <path
       id="path15"
       style="baseline-shift:baseline;display:inline;overflow:visible;vector-effect:none;fill:#57c679;stroke-width:0.651537;stroke-linejoin:round;enable-background:accumulate;stop-color:#000000;fill-opacity:1"
       d="m 170.43197,75.667216 a 2.6460986,2.6460986 0 0 0 -1.32291,0.3545 l -3.99562,2.306836 5.29115,3.055111 0.0279,-0.01602 23.00997,13.284977 v 26.57047 l -23.00997,13.2855 -23.011,-13.2855 v -8.87491 l -5.29115,3.0546 v 7.34735 a 2.6460986,2.6460986 0 0 0 1.32344,2.29185 l 25.65528,14.81253 a 2.6460986,2.6460986 0 0 0 2.64583,0 l 25.65683,-14.81253 a 2.6460986,2.6460986 0 0 0 1.32344,-2.29185 V 93.125582 a 2.6460986,2.6460986 0 0 0 -1.32344,-2.29185 L 171.75489,76.021716 a 2.6460986,2.6460986 0 0 0 -1.32292,-0.3545 z m -10.60917,5.71593 -16.36902,9.450586 a 2.6460986,2.6460986 0 0 0 -1.32344,2.29185 v 16.166458 l 5.29115,-3.05511 V 94.65262 l 17.69246,-10.214363 z" />
    <path
       d="m 86.045202,152.98878 q 0,0.81985 -0.197555,1.49154 -0.197556,0.66182 -0.612422,1.14583 -0.414867,0.48401 -1.066801,0.74083 -0.642055,0.25682 -1.550811,0.25682 -0.889,0 -1.540934,-0.25682 -0.642056,-0.25682 -1.0668,-0.74083 -0.414867,-0.48401 -0.6223,-1.14583 -0.197556,-0.67169 -0.197556,-1.50142 0,-1.09643 0.365478,-1.90641 0.365478,-0.81986 1.126067,-1.26436 0.760589,-0.4445 1.945923,-0.4445 1.205089,0 1.9558,0.45438 0.760589,0.4445 1.106311,1.26436 0.3556,0.80998 0.3556,1.90641 z m -4.849989,0 q 0,0.63218 0.138288,1.09643 0.148167,0.45438 0.464256,0.70133 0.316089,0.24694 0.819856,0.24694 0.523522,0 0.829733,-0.24694 0.316089,-0.24695 0.454378,-0.70133 0.138289,-0.46425 0.138289,-1.09643 0,-0.95815 -0.316089,-1.5113 -0.316089,-0.55316 -1.096433,-0.55316 -0.513645,0 -0.829734,0.25683 -0.316089,0.24694 -0.464256,0.7112 -0.138288,0.45437 -0.138288,1.09643 z m 9.229382,-3.51649 q 0.958145,0 1.590323,0.23707 0.642056,0.23706 0.958145,0.70132 0.325966,0.45438 0.325966,1.14582 0,0.42475 -0.148166,0.78035 -0.138289,0.3556 -0.404989,0.63217 -0.2667,0.27658 -0.642056,0.48401 l 2.054578,3.07199 h -2.163234 l -1.491544,-2.56822 h -0.484012 v 2.56822 h -1.906411 v -7.05273 z m -0.02963,1.44216 h -0.375356 v 1.61007 h 0.3556 q 0.434623,0 0.711201,-0.18767 0.286455,-0.19756 0.286455,-0.69145 0,-0.22719 -0.09878,-0.38523 -0.09878,-0.16792 -0.316088,-0.25682 -0.217312,-0.0889 -0.563034,-0.0889 z m 9.387418,5.61057 h -4.188179 v -7.05273 h 4.188179 v 1.53106 h -2.281767 v 1.10631 h 2.113845 v 1.53105 h -2.113845 v 1.3335 h 2.281767 z m 4.86339,-4.12891 h 3.04236 v 3.80295 q -0.54328,0.18768 -1.25448,0.30621 -0.70132,0.11853 -1.47179,0.11853 -1.01741,0 -1.78787,-0.39511 -0.76059,-0.39511 -1.19522,-1.20509 -0.42474,-0.80998 -0.42474,-2.0447 0,-1.10631 0.42474,-1.91629 0.42475,-0.80998 1.2446,-1.2446 0.82974,-0.4445 2.03483,-0.4445 0.66181,0 1.25447,0.12841 0.59267,0.11854 1.02729,0.31609 l -0.60254,1.49155 q -0.37536,-0.18768 -0.79022,-0.27658 -0.41487,-0.0988 -0.87913,-0.0988 -0.63217,0 -1.01741,0.28646 -0.38523,0.28645 -0.56303,0.76059 -0.16792,0.47413 -0.16792,1.04704 0,0.65193 0.18768,1.10631 0.18767,0.45438 0.54327,0.69145 0.3556,0.22719 0.86925,0.22719 0.16792,0 0.40499,-0.0198 0.24694,-0.0296 0.37535,-0.0593 v -1.10631 h -1.25448 z m 11.86674,0.59267 q 0,0.81985 -0.19755,1.49154 -0.19756,0.66182 -0.61242,1.14583 -0.41487,0.48401 -1.0668,0.74083 -0.64206,0.25682 -1.55082,0.25682 -0.889,0 -1.54093,-0.25682 -0.64205,-0.25682 -1.0668,-0.74083 -0.41487,-0.48401 -0.6223,-1.14583 -0.19755,-0.67169 -0.19755,-1.50142 0,-1.09643 0.36547,-1.90641 0.36548,-0.81986 1.12607,-1.26436 0.76059,-0.4445 1.94592,-0.4445 1.20509,0 1.9558,0.45438 0.76059,0.4445 1.10631,1.26436 0.3556,0.80998 0.3556,1.90641 z m -4.84999,0 q 0,0.63218 0.13829,1.09643 0.14817,0.45438 0.46426,0.70133 0.31609,0.24694 0.81985,0.24694 0.52353,0 0.82974,-0.24694 0.31609,-0.24695 0.45438,-0.70133 0.13829,-0.46425 0.13829,-1.09643 0,-0.95815 -0.31609,-1.5113 -0.31609,-0.55316 -1.09644,-0.55316 -0.51364,0 -0.82973,0.25683 -0.31609,0.24694 -0.46426,0.7112 -0.13829,0.45437 -0.13829,1.09643 z m 13.63488,3.53624 h -2.49908 l -2.5781,-4.96852 h -0.0395 q 0.0198,0.22719 0.0395,0.55316 0.0198,0.31609 0.0296,0.64205 0.0198,0.32597 0.0198,0.59267 v 3.18064 h -1.68911 v -7.05273 h 2.48921 l 2.56822,4.89938 h 0.0296 q -0.01,-0.22719 -0.0296,-0.5334 -0.0198,-0.30621 -0.0296,-0.6223 -0.01,-0.31609 -0.01,-0.55316 v -3.19052 h 1.69898 z m 9.86507,0 h -4.18817 v -7.05273 h 4.18817 v 1.53106 h -2.28176 v 1.10631 h 2.11384 v 1.53105 h -2.11384 v 1.3335 h 2.28176 z m 8.74536,0 h -2.49907 l -2.5781,-4.96852 h -0.0395 q 0.0198,0.22719 0.0395,0.55316 0.0198,0.31609 0.0296,0.64205 0.0198,0.32597 0.0198,0.59267 v 3.18064 h -1.6891 v -7.05273 h 2.4892 l 2.56823,4.89938 h 0.0296 q -0.01,-0.22719 -0.0296,-0.5334 -0.0198,-0.30621 -0.0296,-0.6223 -0.01,-0.31609 -0.01,-0.55316 v -3.19052 h 1.69897 z m 5.42643,0 h -1.90641 v -5.49204 h -1.71873 v -1.56069 h 5.34388 v 1.56069 h -1.71874 z m 7.7082,0 h -4.18818 v -7.05273 h 4.18818 v 1.53106 h -2.28177 v 1.10631 h 2.11384 v 1.53105 h -2.11384 v 1.3335 h 2.28177 z m 4.33986,-7.05273 q 0.95815,0 1.59033,0.23707 0.64205,0.23706 0.95814,0.70132 0.32597,0.45438 0.32597,1.14582 0,0.42475 -0.14817,0.78035 -0.13829,0.3556 -0.40499,0.63217 -0.2667,0.27658 -0.64205,0.48401 l 2.05457,3.07199 h -2.16323 l -1.49154,-2.56822 h -0.48402 v 2.56822 h -1.90641 v -7.05273 z m -0.0296,1.44216 h -0.37536 v 1.61007 h 0.3556 q 0.43463,0 0.7112,-0.18767 0.28646,-0.19756 0.28646,-0.69145 0,-0.22719 -0.0988,-0.38523 -0.0988,-0.16792 -0.31609,-0.25682 -0.21731,-0.0889 -0.56303,-0.0889 z m 7.63905,-1.44216 q 1.34338,0 2.00519,0.58279 0.67169,0.58279 0.67169,1.65947 0,0.48401 -0.13829,0.92851 -0.13829,0.43462 -0.45437,0.79022 -0.30622,0.34572 -0.81986,0.55315 -0.51364,0.19756 -1.26436,0.19756 h -0.5334 v 2.34103 h -1.90641 v -7.05273 z m -0.0395,1.54093 h -0.49389 v 1.61996 h 0.37536 q 0.24694,0 0.45438,-0.079 0.21731,-0.0889 0.34572,-0.27658 0.12841,-0.19756 0.12841,-0.51365 0,-0.33584 -0.19755,-0.54327 -0.19756,-0.20744 -0.61243,-0.20744 z m 6.94761,-1.54093 q 0.95814,0 1.59032,0.23707 0.64206,0.23706 0.95815,0.70132 0.32596,0.45438 0.32596,1.14582 0,0.42475 -0.14816,0.78035 -0.13829,0.3556 -0.40499,0.63217 -0.2667,0.27658 -0.64206,0.48401 l 2.05458,3.07199 h -2.16323 l -1.49155,-2.56822 h -0.48401 v 2.56822 h -1.90641 v -7.05273 z m -0.0296,1.44216 h -0.37536 v 1.61007 h 0.3556 q 0.43462,0 0.7112,-0.18767 0.28646,-0.19756 0.28646,-0.69145 0,-0.22719 -0.0988,-0.38523 -0.0988,-0.16792 -0.31609,-0.25682 -0.21731,-0.0889 -0.56303,-0.0889 z m 8.44902,5.61057 h -3.67453 v -1.08655 l 0.87912,-0.33585 v -4.21781 l -0.87912,-0.32596 v -1.08656 h 3.67453 v 1.08656 l -0.87912,0.32596 v 4.21781 l 0.87912,0.33585 z m 6.50312,-2.14347 q 0,0.57291 -0.29633,1.08655 -0.28646,0.51365 -0.89888,0.83961 -0.60255,0.31609 -1.57057,0.31609 -0.48401,0 -0.84949,-0.0494 -0.3556,-0.0395 -0.67169,-0.13829 -0.31609,-0.0988 -0.65193,-0.25682 v -1.69898 q 0.57291,0.28646 1.1557,0.4445 0.58279,0.14817 1.05692,0.14817 0.28646,0 0.46426,-0.0691 0.1778,-0.0692 0.2667,-0.18768 0.0889,-0.11853 0.0889,-0.2667 0,-0.18768 -0.12841,-0.31609 -0.12841,-0.12841 -0.40499,-0.2667 -0.27658,-0.13829 -0.74084,-0.34572 -0.39511,-0.1778 -0.7112,-0.37536 -0.31608,-0.19755 -0.54327,-0.4445 -0.21731,-0.24694 -0.33585,-0.57291 -0.11853,-0.33584 -0.11853,-0.79022 0,-0.68157 0.33584,-1.13595 0.33585,-0.46425 0.92851,-0.69144 0.60255,-0.23707 1.39277,-0.23707 0.69145,0 1.2446,0.15805 0.55316,0.14816 0.98778,0.34572 l -0.58279,1.47179 q -0.45438,-0.20744 -0.89888,-0.32597 -0.43462,-0.12841 -0.80998,-0.12841 -0.24694,0 -0.40498,0.0593 -0.15805,0.0593 -0.23707,0.16792 -0.0692,0.0988 -0.0692,0.22719 0,0.16792 0.12842,0.29633 0.12841,0.12841 0.42474,0.28646 0.30621,0.14816 0.82973,0.38523 0.51365,0.22719 0.86925,0.50377 0.36548,0.2667 0.55315,0.64205 0.19756,0.36548 0.19756,0.91864 z m 6.06848,2.14347 h -4.18818 v -7.05273 h 4.18818 v 1.53106 h -2.28177 v 1.10631 h 2.11385 v 1.53105 h -2.11385 v 1.3335 h 2.28177 z"
       id="text1"
       style="font-weight:900;font-size:9.87778px;line-height:1;font-family:'Noto Sans';-inkscape-font-specification:'Noto Sans Heavy';letter-spacing:0.79375px;fill:#ffffff;stroke-width:1.05833;stroke-linecap:round;stroke-linejoin:bevel;stroke-miterlimit:0;paint-order:fill markers stroke"
       aria-label="OREGON ENTERPRISE" />
    <path
       style="font-weight:800;font-size:16.9333px;line-height:1;font-family:'Noto Sans';-inkscape-font-specification:'Noto Sans Ultra-Bold';letter-spacing:-0.264583px;fill:#ffffff;stroke-width:1.05833;stroke-linecap:round;stroke-linejoin:bevel;stroke-miterlimit:0;paint-order:fill markers stroke"
       d="m 89.228885,165.36351 q 0,2.08279 -0.778932,3.48826 -0.778932,1.38853 -2.201329,2.08279 -1.422397,0.69427 -3.369726,0.69427 h -3.79306 v -12.09038 h 4.097859 q 1.913463,0 3.268127,0.67734 1.354664,0.66039 2.065862,1.96426 0.711199,1.28693 0.711199,3.18346 z m -3.014127,0.1016 q 0,-1.20227 -0.3556,-1.99813 -0.338666,-0.79587 -1.015998,-1.18533 -0.677332,-0.38947 -1.69333,-0.38947 h -1.151464 v 7.34905 h 0.914398 q 1.69333,0 2.489195,-0.93133 0.812799,-0.94826 0.812799,-2.84479 z m 9.167262,-3.30199 q 1.74413,0 2.692394,0.84666 0.965199,0.84667 0.965199,2.47226 v 6.14679 h -1.981197 l -0.558798,-1.25306 h -0.06773 q -0.389466,0.49106 -0.812798,0.81279 -0.406399,0.32174 -0.948265,0.4572 -0.541865,0.1524 -1.320797,0.1524 -0.812799,0 -1.456264,-0.32173 -0.643465,-0.32173 -1.015998,-0.9652 -0.372533,-0.6604 -0.372533,-1.67639 0,-1.4732 1.049865,-2.20133 1.049865,-0.72814 3.081861,-0.8128 l 1.54093,-0.0508 v -0.22013 q 0,-0.72814 -0.338666,-1.03294 -0.338666,-0.3048 -0.948265,-0.3048 -0.592665,0 -1.269997,0.2032 -0.660399,0.2032 -1.320798,0.49107 l -0.829732,-1.91346 q 0.761999,-0.4064 1.74413,-0.6096 0.982132,-0.22013 2.167463,-0.22013 z m -0.0508,5.26625 q -1.049865,0.0339 -1.490131,0.3556 -0.423332,0.32173 -0.423332,0.9144 0,0.52493 0.304799,0.77893 0.3048,0.254 0.778932,0.254 0.711199,0 1.202264,-0.42333 0.491066,-0.42333 0.491066,-1.1684 v -0.74507 z m 10.03087,2.09973 q 0.44027,0 0.8128,-0.0847 0.37253,-0.0847 0.762,-0.22013 v 2.09973 q -0.4572,0.2032 -1.04986,0.33867 -0.59267,0.13546 -1.40547,0.13546 -0.8636,0 -1.54093,-0.27093 -0.6604,-0.28787 -1.04986,-0.9652 -0.37254,-0.69426 -0.37254,-1.91346 v -4.18253 h -1.18533 v -1.18533 l 1.4224,-0.9144 0.77893,-1.96426 h 1.8288 v 1.9304 h 2.47226 v 2.13359 h -2.47226 v 4.08093 q 0,0.49107 0.27093,0.74506 0.27093,0.23707 0.72813,0.23707 z m 7.37232,-7.36598 q 1.74413,0 2.6924,0.84666 0.9652,0.84667 0.9652,2.47226 v 6.14679 h -1.9812 l -0.5588,-1.25306 h -0.0677 q -0.38947,0.49106 -0.8128,0.81279 -0.4064,0.32174 -0.94826,0.4572 -0.54187,0.1524 -1.3208,0.1524 -0.8128,0 -1.45626,-0.32173 -0.64347,-0.32173 -1.016,-0.9652 -0.37254,-0.6604 -0.37254,-1.67639 0,-1.4732 1.04987,-2.20133 1.04986,-0.72814 3.08186,-0.8128 l 1.54093,-0.0508 v -0.22013 q 0,-0.72814 -0.33867,-1.03294 -0.33866,-0.3048 -0.94826,-0.3048 -0.59267,0 -1.27,0.2032 -0.6604,0.2032 -1.3208,0.49107 l -0.82973,-1.91346 q 0.762,-0.4064 1.74413,-0.6096 0.98213,-0.22013 2.16746,-0.22013 z m -0.0508,5.26625 q -1.04986,0.0339 -1.49013,0.3556 -0.42333,0.32173 -0.42333,0.9144 0,0.52493 0.3048,0.77893 0.3048,0.254 0.77893,0.254 0.7112,0 1.20227,-0.42333 0.49106,-0.42333 0.49106,-1.1684 v -0.74507 z m 17.55562,4.19946 -0.762,-2.57386 h -4.11479 l -0.77894,2.57386 h -3.16652 l 4.11479,-12.14118 h 3.72532 l 4.14866,12.14118 z m -2.09973,-7.31519 q -0.0847,-0.27093 -0.23707,-0.81279 -0.13547,-0.5588 -0.28787,-1.15147 -0.13546,-0.59266 -0.20319,-0.94826 -0.0847,0.38946 -0.22014,0.94826 -0.11853,0.54187 -0.254,1.08373 -0.13546,0.52494 -0.23706,0.88053 l -0.69427,2.3368 h 2.82786 z m 11.74113,-2.15052 q 1.49013,0 2.38759,0.81279 0.89747,0.79587 0.89747,2.5908 v 6.06212 h -2.87866 v -5.26626 q 0,-0.96519 -0.32174,-1.43933 -0.3048,-0.49106 -0.99906,-0.49106 -1.03293,0 -1.40546,0.762 -0.37254,0.76199 -0.37254,2.20132 v 4.23333 h -2.86172 v -9.29638 h 2.16746 l 0.4064,1.23613 h 0.11853 q 0.3048,-0.4572 0.7112,-0.762 0.42333,-0.32173 0.9652,-0.47413 0.54186,-0.16933 1.18533,-0.16933 z m 9.67527,0 q 1.74413,0 2.6924,0.84666 0.96519,0.84667 0.96519,2.47226 v 6.14679 h -1.98119 l -0.5588,-1.25306 h -0.0677 q -0.38946,0.49106 -0.81279,0.81279 -0.4064,0.32174 -0.94827,0.4572 -0.54186,0.1524 -1.3208,0.1524 -0.81279,0 -1.45626,-0.32173 -0.64346,-0.32173 -1.016,-0.9652 -0.37253,-0.6604 -0.37253,-1.67639 0,-1.4732 1.04986,-2.20133 1.04987,-0.72814 3.08187,-0.8128 l 1.54093,-0.0508 v -0.22013 q 0,-0.72814 -0.33867,-1.03294 -0.33867,-0.3048 -0.94827,-0.3048 -0.59266,0 -1.26999,0.2032 -0.6604,0.2032 -1.3208,0.49107 l -0.82973,-1.91346 q 0.762,-0.4064 1.74413,-0.6096 0.98213,-0.22013 2.16746,-0.22013 z m -0.0508,5.26625 q -1.04986,0.0339 -1.49013,0.3556 -0.42333,0.32173 -0.42333,0.9144 0,0.52493 0.3048,0.77893 0.3048,0.254 0.77893,0.254 0.7112,0 1.20226,-0.42333 0.49107,-0.42333 0.49107,-1.1684 v -0.74507 z m 8.64235,4.19946 h -2.86173 v -12.86931 h 2.86173 z m 0.90381,-9.29638 h 3.03106 l 1.6764,5.31705 q 0.0508,0.18627 0.1016,0.42334 0.0677,0.22013 0.1016,0.4572 0.0508,0.22013 0.0677,0.44026 h 0.0677 q 0.0508,-0.3556 0.13547,-0.69426 0.1016,-0.33867 0.18626,-0.6096 l 1.6764,-5.33399 h 2.9464 l -3.7592,10.02451 q -0.38946,1.08373 -0.93133,1.8288 -0.54186,0.74506 -1.33773,1.1176 -0.77893,0.38946 -1.9304,0.38946 -0.44026,0 -0.76199,-0.0508 -0.3048,-0.0339 -0.54187,-0.0847 v -2.25213 q 0.18627,0.0339 0.44027,0.0677 0.27093,0.0339 0.55879,0.0339 0.54187,0 0.88054,-0.22014 0.33866,-0.22013 0.5588,-0.57573 0.23706,-0.33866 0.40639,-0.762 l 0.11854,-0.32173 z m 15.16167,7.19665 q 0.44026,0 0.81279,-0.0847 0.37254,-0.0847 0.762,-0.22013 v 2.09973 q -0.4572,0.2032 -1.04986,0.33867 -0.59267,0.13546 -1.40547,0.13546 -0.86359,0 -1.54093,-0.27093 -0.6604,-0.28787 -1.04986,-0.9652 -0.37253,-0.69426 -0.37253,-1.91346 v -4.18253 h -1.18533 v -1.18533 l 1.42239,-0.9144 0.77893,-1.96426 h 1.8288 v 1.9304 h 2.47226 v 2.13359 h -2.47226 v 4.08093 q 0,0.49107 0.27093,0.74506 0.27094,0.23707 0.72814,0.23707 z m 5.91605,-7.19665 v 9.29638 h -2.86173 v -9.29638 z m -1.4224,-3.70839 q 0.62653,0 1.08373,0.28786 0.4572,0.27093 0.4572,1.04987 0,0.76199 -0.4572,1.04986 -0.4572,0.27093 -1.08373,0.27093 -0.64346,0 -1.10066,-0.27093 -0.44027,-0.28787 -0.44027,-1.04986 0,-0.77894 0.44027,-1.04987 0.4572,-0.28786 1.10066,-0.28786 z m 7.67715,13.1741 q -1.3716,0 -2.40453,-0.508 -1.016,-0.508 -1.59173,-1.55786 -0.5588,-1.0668 -0.5588,-2.70933 0,-1.71026 0.62653,-2.77706 0.62654,-1.0668 1.69333,-1.5748 1.08374,-0.50799 2.45533,-0.50799 0.82973,0 1.5748,0.18626 0.74506,0.16933 1.35466,0.47413 l -0.84666,2.15053 q -0.54187,-0.23706 -1.04987,-0.38946 -0.508,-0.1524 -1.03293,-0.1524 -0.57573,0 -0.99906,0.28786 -0.42333,0.28787 -0.64347,0.8636 -0.22013,0.5588 -0.22013,1.4224 0,0.8636 0.22013,1.4224 0.23707,0.54186 0.64347,0.81279 0.42333,0.254 0.99906,0.254 0.69427,0 1.3716,-0.2032 0.67733,-0.2032 1.27,-0.55879 v 2.30292 q -0.5588,0.3556 -1.25307,0.5588 -0.67733,0.2032 -1.60866,0.2032 z m 11.26701,-2.96332 q 0,0.88053 -0.4064,1.55786 -0.4064,0.6604 -1.27,1.03293 -0.8636,0.37253 -2.21826,0.37253 -0.98213,0 -1.76107,-0.11853 -0.76199,-0.11853 -1.50706,-0.42333 v -2.31986 q 0.8128,0.37253 1.69333,0.55879 0.89747,0.18627 1.4732,0.18627 0.67733,0 0.98213,-0.16933 0.3048,-0.16934 0.3048,-0.47413 0,-0.23707 -0.16933,-0.4064 -0.16934,-0.18627 -0.62654,-0.38947 -0.44026,-0.2032 -1.25306,-0.52493 -0.79587,-0.33867 -1.33773,-0.7112 -0.54187,-0.37253 -0.8128,-0.88053 -0.27093,-0.52493 -0.27093,-1.28693 0,-1.3208 1.03293,-1.99813 1.03293,-0.67733 2.72626,-0.67733 0.9144,0 1.71026,0.20319 0.79587,0.18627 1.60867,0.54187 l -0.79587,1.89653 q -0.6604,-0.3048 -1.35466,-0.47413 -0.69427,-0.18627 -1.1684,-0.18627 -0.49107,0 -0.762,0.13547 -0.27093,0.13546 -0.27093,0.38946 0,0.22014 0.1524,0.38947 0.16933,0.1524 0.59266,0.33867 0.44027,0.18626 1.23613,0.50799 0.82974,0.32174 1.3716,0.69427 0.54187,0.37253 0.8128,0.89746 0.28787,0.52494 0.28787,1.33774 z"
       id="text2"
       aria-label="Data Analytics" />
  </g>
</svg>
