<?xml version="1.0" encoding="UTF-8" standalone="no"?>
<!-- Created with Inkscape (http://www.inkscape.org/) -->

<svg
   width="10.5in"
   height="3.5in"
   viewBox="0 0 266.7 88.900002"
   version="1.1"
   id="svg1"
   inkscape:version="1.4.2 (f4327f4, 2025-05-13)"
   sodipodi:docname="OEDA_Logo_Horizontal_Dark.svg"
   inkscape:export-filename="OEDA Horizontal.png"
   inkscape:export-xdpi="94.410004"
   inkscape:export-ydpi="94.410004"
   xmlns:inkscape="http://www.inkscape.org/namespaces/inkscape"
   xmlns:sodipodi="http://sodipodi.sourceforge.net/DTD/sodipodi-0.dtd"
   xmlns="http://www.w3.org/2000/svg"
   xmlns:svg="http://www.w3.org/2000/svg">
  <sodipodi:namedview
     id="namedview1"
     pagecolor="#414042"
     bordercolor="#000000"
     borderopacity="0.25"
     inkscape:showpageshadow="2"
     inkscape:pageopacity="0.0"
     inkscape:pagecheckerboard="0"
     inkscape:deskcolor="#d1d1d1"
     inkscape:document-units="px"
     showguides="true"
     inkscape:zoom="1.4142136"
     inkscape:cx="505.22778"
     inkscape:cy="233.69878"
     inkscape:window-width="2560"
     inkscape:window-height="1377"
     inkscape:window-x="-8"
     inkscape:window-y="-8"
     inkscape:window-maximized="1"
     inkscape:current-layer="layer1" />
  <defs
     id="defs1" />
  <g
     inkscape:label="Layer 1"
     inkscape:groupmode="layer"
     id="layer1"
     transform="translate(-15.606226,-65.393288)">
    <path
       style="font-weight:900;font-size:13.7583px;line-height:1;font-family:'Noto Sans';-inkscape-font-specification:'Noto Sans Heavy';letter-spacing:0.79375px;fill:#ffffff;stroke-width:1.05833;stroke-linecap:round;stroke-linejoin:bevel;stroke-miterlimit:0;paint-order:fill markers stroke"
       d="m 111.32875,101.8586 q 0,1.14194 -0.27516,2.0775 -0.27517,0.92181 -0.85302,1.59597 -0.57785,0.67415 -1.48589,1.03187 -0.89429,0.35772 -2.16006,0.35772 -1.23824,0 -2.14629,-0.35772 -0.89429,-0.35772 -1.4859,-1.03187 -0.57785,-0.67416 -0.86677,-1.59597 -0.27517,-0.93556 -0.27517,-2.09126 0,-1.52717 0.50906,-2.655349 0.50906,-1.141939 1.56845,-1.761062 1.05938,-0.619123 2.71038,-0.619123 1.67851,0 2.72414,0.632881 1.05939,0.619124 1.54093,1.761063 0.4953,1.12818 0.4953,2.65535 z m -6.75532,0 q 0,0.88053 0.19261,1.52717 0.20638,0.63288 0.64664,0.97684 0.44027,0.34396 1.14194,0.34396 0.72919,0 1.1557,-0.34396 0.44027,-0.34396 0.63288,-0.97684 0.19262,-0.64664 0.19262,-1.52717 0,-1.33455 -0.44027,-2.105018 -0.44026,-0.770465 -1.52717,-0.770465 -0.71543,0 -1.1557,0.357716 -0.44026,0.343957 -0.64664,0.990597 -0.19261,0.63288 -0.19261,1.52717 z m 12.54335,-4.897953 q 1.33455,0 2.21508,0.330199 0.89429,0.330199 1.33456,0.976839 0.45402,0.632882 0.45402,1.595963 0,0.591602 -0.20637,1.086902 -0.19262,0.4953 -0.56409,0.88053 -0.37148,0.38524 -0.89429,0.67416 l 2.86172,4.27883 h -3.01306 l -2.07751,-3.57716 h -0.67415 v 3.57716 h -2.65535 v -9.823423 z m -0.0413,2.008712 h -0.52281 v 2.242601 h 0.4953 q 0.60536,0 0.99059,-0.26141 0.39899,-0.27516 0.39899,-0.963077 0,-0.316441 -0.13758,-0.536574 -0.13758,-0.233891 -0.44026,-0.357716 -0.30269,-0.123824 -0.78423,-0.123824 z m 12.76347,7.814711 h -5.83352 v -9.823423 h 5.83352 v 2.132536 h -3.17816 v 1.540927 h 2.94427 v 2.13254 h -2.94427 v 1.85737 h 3.17816 z m 6.46217,-5.75097 h 4.23756 v 5.29695 q -0.75671,0.26141 -1.74731,0.42651 -0.97684,0.1651 -2.04998,0.1651 -1.41711,0 -2.49026,-0.55034 -1.05939,-0.55033 -1.66475,-1.67851 -0.59161,-1.12818 -0.59161,-2.84797 0,-1.54093 0.59161,-2.669107 0.59161,-1.128181 1.73355,-1.733546 1.15569,-0.619123 2.83421,-0.619123 0.9218,0 1.7473,0.178858 0.8255,0.165099 1.43086,0.440265 l -0.83925,2.077504 q -0.52282,-0.261408 -1.10067,-0.385233 -0.57785,-0.137583 -1.22449,-0.137583 -0.88053,0 -1.4171,0.398991 -0.53658,0.398991 -0.78422,1.059384 -0.2339,0.6604 -0.2339,1.45838 0,0.90805 0.26141,1.54093 0.26141,0.63289 0.75671,0.96309 0.4953,0.31644 1.21073,0.31644 0.23389,0 0.56409,-0.0275 0.34396,-0.0413 0.52281,-0.0825 v -1.54093 h -1.7473 z m 16.2168,0.8255 q 0,1.14194 -0.27516,2.0775 -0.27517,0.92181 -0.85302,1.59597 -0.57785,0.67415 -1.48589,1.03187 -0.89429,0.35772 -2.16006,0.35772 -1.23824,0 -2.14629,-0.35772 -0.89429,-0.35772 -1.4859,-1.03187 -0.57785,-0.67416 -0.86677,-1.59597 -0.27517,-0.93556 -0.27517,-2.09126 0,-1.52717 0.50906,-2.655349 0.50906,-1.141939 1.56845,-1.761062 1.05938,-0.619123 2.71038,-0.619123 1.67851,0 2.72414,0.632881 1.05939,0.619124 1.54093,1.761063 0.4953,1.12818 0.4953,2.65535 z m -6.75532,0 q 0,0.88053 0.19261,1.52717 0.20638,0.63288 0.64664,0.97684 0.44027,0.34396 1.14194,0.34396 0.72919,0 1.1557,-0.34396 0.44027,-0.34396 0.63288,-0.97684 0.19262,-0.64664 0.19262,-1.52717 0,-1.33455 -0.44027,-2.105018 -0.44026,-0.770465 -1.52717,-0.770465 -0.71543,0 -1.1557,0.357716 -0.44026,0.343957 -0.64664,0.990597 -0.19261,0.63288 -0.19261,1.52717 z m 18.67955,4.92547 h -3.48085 l -3.59092,-6.920422 h -0.055 q 0.0275,0.316442 0.055,0.770462 0.0275,0.44027 0.0413,0.89429 0.0275,0.45403 0.0275,0.8255 v 4.43017 h -2.35267 v -9.823423 h 3.46709 l 3.57716,6.824113 h 0.0413 q -0.0138,-0.31644 -0.0413,-0.74294 -0.0275,-0.42651 -0.0413,-0.86678 -0.0138,-0.44026 -0.0138,-0.77046 v -4.443933 h 2.36643 z m 13.11695,0 h -5.83352 v -9.823423 h 5.83352 v 2.132536 h -3.17817 v 1.540927 h 2.94428 v 2.13254 h -2.94428 v 1.85737 h 3.17817 z m 11.86918,0 h -3.48085 l -3.59092,-6.920422 h -0.055 q 0.0275,0.316442 0.055,0.770462 0.0275,0.44027 0.0413,0.89429 0.0275,0.45403 0.0275,0.8255 v 4.43017 h -2.35267 v -9.823423 h 3.46709 l 3.57716,6.824113 h 0.0413 q -0.0138,-0.31644 -0.0413,-0.74294 -0.0275,-0.42651 -0.0413,-0.86678 -0.0138,-0.44026 -0.0138,-0.77046 v -4.443933 h 2.36643 z m 7.24639,0 h -2.65536 v -7.649612 h -2.39394 v -2.173811 h 7.44324 v 2.173811 h -2.39394 z m 10.42455,0 h -5.83352 v -9.823423 h 5.83352 v 2.132536 h -3.17817 v 1.540927 h 2.94428 v 2.13254 h -2.94428 v 1.85737 h 3.17817 z m 5.73297,-9.823423 q 1.33456,0 2.21509,0.330199 0.89429,0.330199 1.33456,0.976839 0.45402,0.632882 0.45402,1.595963 0,0.591602 -0.20638,1.086902 -0.19261,0.4953 -0.56409,0.88053 -0.37147,0.38524 -0.89428,0.67416 l 2.86172,4.27883 h -3.01307 l -2.0775,-3.57716 h -0.67416 v 3.57716 h -2.65535 v -9.823423 z m -0.0413,2.008712 h -0.52282 v 2.242601 h 0.4953 q 0.60537,0 0.9906,-0.26141 0.39899,-0.27516 0.39899,-0.963077 0,-0.316441 -0.13758,-0.536574 -0.13759,-0.233891 -0.44027,-0.357716 -0.30268,-0.123824 -0.78422,-0.123824 z m 10.32826,-2.008712 q 1.87112,0 2.79293,0.811739 0.93557,0.81174 0.93557,2.311394 0,0.67416 -0.19262,1.29328 -0.19262,0.60537 -0.63288,1.10067 -0.42651,0.48154 -1.14194,0.77046 -0.71543,0.27517 -1.76106,0.27517 h -0.74295 v 3.26071 h -2.65535 v -9.823423 z m -0.055,2.146295 h -0.68791 v 2.256358 h 0.52281 q 0.34396,0 0.63288,-0.11006 0.30269,-0.12383 0.48155,-0.38524 0.17885,-0.27516 0.17885,-0.71543 0,-0.46778 -0.27516,-0.756704 -0.27517,-0.288924 -0.85302,-0.288924 z m 9.36517,-2.146295 q 1.33455,0 2.21508,0.330199 0.89429,0.330199 1.33456,0.976839 0.45402,0.632882 0.45402,1.595963 0,0.591602 -0.20637,1.086902 -0.19262,0.4953 -0.56409,0.88053 -0.37147,0.38524 -0.89429,0.67416 l 2.86173,4.27883 h -3.01307 l -2.0775,-3.57716 h -0.67416 v 3.57716 h -2.65535 v -9.823423 z m -0.0413,2.008712 h -0.52281 v 2.242601 h 0.4953 q 0.60536,0 0.99059,-0.26141 0.399,-0.27516 0.399,-0.963077 0,-0.316441 -0.13759,-0.536574 -0.13758,-0.233891 -0.44026,-0.357716 -0.30269,-0.123824 -0.78423,-0.123824 z m 11.45643,7.814711 h -5.11808 v -1.51341 l 1.22448,-0.46778 V 98.928084 L 238.7264,98.47406 v -1.513413 h 5.11808 v 1.513413 l -1.22449,0.454024 v 5.874796 l 1.22449,0.46778 z m 8.74606,-2.98555 q 0,0.79798 -0.41275,1.51341 -0.39899,0.71544 -1.252,1.16946 -0.83926,0.44027 -2.18757,0.44027 -0.67416,0 -1.18322,-0.0688 -0.4953,-0.055 -0.93556,-0.19261 -0.44027,-0.13758 -0.90805,-0.35772 v -2.36643 q 0.79798,0.399 1.60972,0.61913 0.81174,0.20637 1.47214,0.20637 0.39899,0 0.64664,-0.0963 0.24765,-0.0963 0.37147,-0.2614 0.12383,-0.1651 0.12383,-0.37148 0,-0.2614 -0.17886,-0.44026 -0.17886,-0.17886 -0.56409,-0.37148 -0.38523,-0.19261 -1.03187,-0.48154 -0.55033,-0.24765 -0.9906,-0.52281 -0.44026,-0.27517 -0.75671,-0.61913 -0.30268,-0.34395 -0.46778,-0.79798 -0.1651,-0.46778 -0.1651,-1.100662 0,-0.949322 0.46778,-1.582204 0.46779,-0.64664 1.29328,-0.963081 0.83926,-0.330199 1.93993,-0.330199 0.96308,0 1.73354,0.220133 0.77047,0.206374 1.37583,0.48154 l -0.81174,2.049987 q -0.63288,-0.288925 -1.252,-0.454024 -0.60537,-0.178858 -1.12818,-0.178858 -0.34396,0 -0.5641,0.08255 -0.22013,0.08255 -0.33019,0.233891 -0.0963,0.137583 -0.0963,0.316441 0,0.233891 0.17886,0.412749 0.17885,0.178857 0.5916,0.398987 0.42651,0.20638 1.1557,0.53658 0.71543,0.31644 1.21073,0.70167 0.50906,0.37147 0.77046,0.89429 0.27517,0.50906 0.27517,1.27952 z m 8.14068,2.98555 h -5.83352 v -9.823423 h 5.83352 v 2.132536 h -3.17817 v 1.540927 h 2.94428 v 2.13254 h -2.94428 v 1.85737 h 3.17817 z"
       id="text1"
       aria-label="OREGON ENTERPRISE" />
    <path
       style="font-weight:800;font-size:22.5778px;line-height:1;font-family:'Noto Sans';-inkscape-font-specification:'Noto Sans Ultra-Bold';letter-spacing:-0.264583px;fill:#ffffff;stroke-width:1.05833;stroke-linecap:round;stroke-linejoin:bevel;stroke-miterlimit:0;paint-order:fill markers stroke"
       d="m 115.22039,117.10831 q 0,2.77707 -1.03858,4.65103 -1.03858,1.85138 -2.93511,2.77707 -1.89654,0.92569 -4.49299,0.92569 h -5.05742 v -16.12055 h 5.46382 q 2.5513,0 4.35752,0.90311 1.80622,0.88053 2.75449,2.61902 0.94827,1.71592 0.94827,4.24463 z m -4.01885,0.13547 q 0,-1.60303 -0.47413,-2.66418 -0.45156,-1.06116 -1.35467,-1.58045 -0.90311,-0.51929 -2.25778,-0.51929 h -1.53529 v 9.79877 h 1.2192 q 2.25778,0 3.31894,-1.24178 1.08373,-1.26436 1.08373,-3.79307 z m 12.31125,-4.40267 q 2.32551,0 3.58987,1.12889 1.28693,1.12889 1.28693,3.29636 v 8.19574 h -2.6416 l -0.74507,-1.67076 h -0.0903 q -0.51929,0.65476 -1.08373,1.08373 -0.54187,0.42898 -1.26436,0.6096 -0.72249,0.20321 -1.76107,0.20321 -1.08373,0 -1.94169,-0.42898 -0.85795,-0.42898 -1.35467,-1.28694 -0.49671,-0.88053 -0.49671,-2.2352 0,-1.96427 1.39983,-2.93511 1.39982,-0.97085 4.10916,-1.08374 l 2.05458,-0.0677 v -0.29351 q 0,-0.97085 -0.45156,-1.37725 -0.45156,-0.4064 -1.26436,-0.4064 -0.79022,0 -1.69333,0.27093 -0.88054,0.27094 -1.76107,0.65476 l -1.10631,-2.55129 q 1.016,-0.54187 2.32551,-0.8128 1.30951,-0.29351 2.88996,-0.29351 z m -0.0677,7.02169 q -1.39983,0.0452 -1.98685,0.47414 -0.56445,0.42897 -0.56445,1.2192 0,0.69991 0.4064,1.03858 0.4064,0.33866 1.03858,0.33866 0.94827,0 1.60303,-0.56444 0.65475,-0.56445 0.65475,-1.55787 v -0.99342 z m 13.46273,2.79965 q 0.58702,0 1.08373,-0.11289 0.49672,-0.11289 1.01601,-0.29351 v 2.79965 q -0.6096,0.27093 -1.39983,0.45155 -0.79022,0.18063 -1.87396,0.18063 -1.15146,0 -2.05457,-0.36125 -0.88054,-0.38382 -1.39983,-1.28693 -0.49671,-0.92569 -0.49671,-2.5513 v -5.57671 h -1.58045 v -1.58045 l 1.89654,-1.2192 1.03858,-2.61902 h 2.4384 v 2.57386 h 3.29636 v 2.84481 h -3.29636 v 5.44125 q 0,0.65475 0.36125,0.99342 0.36124,0.31609 0.97084,0.31609 z m 9.91799,-9.82134 q 2.32551,0 3.58987,1.12889 1.28693,1.12889 1.28693,3.29636 v 8.19574 h -2.6416 l -0.74507,-1.67076 h -0.0903 q -0.51929,0.65476 -1.08374,1.08373 -0.54186,0.42898 -1.26435,0.6096 -0.72249,0.20321 -1.76107,0.20321 -1.08374,0 -1.94169,-0.42898 -0.85796,-0.42898 -1.35467,-1.28694 -0.49671,-0.88053 -0.49671,-2.2352 0,-1.96427 1.39982,-2.93511 1.39983,-0.97085 4.10916,-1.08374 l 2.05458,-0.0677 v -0.29351 q 0,-0.97085 -0.45155,-1.37725 -0.45156,-0.4064 -1.26436,-0.4064 -0.79022,0 -1.69334,0.27093 -0.88053,0.27094 -1.76106,0.65476 l -1.10632,-2.55129 q 1.016,-0.54187 2.32552,-0.8128 1.30951,-0.29351 2.88996,-0.29351 z m -0.0677,7.02169 q -1.39982,0.0452 -1.98684,0.47414 -0.56445,0.42897 -0.56445,1.2192 0,0.69991 0.4064,1.03858 0.4064,0.33866 1.03858,0.33866 0.94827,0 1.60302,-0.56444 0.65476,-0.56445 0.65476,-1.55787 v -0.99342 z m 23.58395,5.5993 -1.016,-3.43183 h -5.48641 l -1.03858,3.43183 h -4.22205 l 5.48641,-16.18829 h 4.96711 l 5.53157,16.18829 z m -2.79965,-9.75361 q -0.11289,-0.36125 -0.31609,-1.08374 -0.18062,-0.74506 -0.38382,-1.53529 -0.18062,-0.79022 -0.27094,-1.26435 -0.11288,0.51928 -0.29351,1.26435 -0.15804,0.72249 -0.33866,1.44498 -0.18063,0.69991 -0.31609,1.17405 l -0.92569,3.11573 h 3.77049 z m 15.74308,-2.86738 q 1.98684,0 3.18347,1.08373 1.19662,1.06116 1.19662,3.4544 v 8.08286 h -3.83822 v -7.0217 q 0,-1.28693 -0.42898,-1.91911 -0.4064,-0.65476 -1.33209,-0.65476 -1.37725,0 -1.87396,1.016 -0.49671,1.016 -0.49671,2.93512 v 5.64445 h -3.81565 v -12.39522 h 2.88996 l 0.54187,1.64818 h 0.15804 q 0.4064,-0.6096 0.94827,-1.016 0.56444,-0.42898 1.28693,-0.63218 0.72249,-0.22577 1.58045,-0.22577 z m 12.98859,0 q 2.32552,0 3.58987,1.12889 1.28694,1.12889 1.28694,3.29636 v 8.19574 h -2.6416 l -0.74507,-1.67076 h -0.0903 q -0.51929,0.65476 -1.08374,1.08373 -0.54186,0.42898 -1.26435,0.6096 -0.72249,0.20321 -1.76107,0.20321 -1.08374,0 -1.94169,-0.42898 -0.85796,-0.42898 -1.35467,-1.28694 -0.49671,-0.88053 -0.49671,-2.2352 0,-1.96427 1.39982,-2.93511 1.39982,-0.97085 4.10916,-1.08374 l 2.05458,-0.0677 v -0.29351 q 0,-0.97085 -0.45156,-1.37725 -0.45155,-0.4064 -1.26435,-0.4064 -0.79023,0 -1.69334,0.27093 -0.88053,0.27094 -1.76107,0.65476 l -1.10631,-2.55129 q 1.016,-0.54187 2.32552,-0.8128 1.30951,-0.29351 2.88995,-0.29351 z m -0.0677,7.02169 q -1.39982,0.0452 -1.98685,0.47414 -0.56444,0.42897 -0.56444,1.2192 0,0.69991 0.4064,1.03858 0.4064,0.33866 1.03858,0.33866 0.94827,0 1.60302,-0.56444 0.65476,-0.56445 0.65476,-1.55787 v -0.99342 z m 11.61136,5.5993 h -3.81565 v -17.15913 h 3.81565 z m 1.29328,-12.39522 h 4.04143 l 2.2352,7.08943 q 0.0677,0.24836 0.13547,0.56445 0.0903,0.29351 0.13546,0.6096 0.0677,0.29351 0.0903,0.58702 h 0.0903 q 0.0677,-0.47413 0.18062,-0.92569 0.13547,-0.45155 0.24835,-0.8128 l 2.23521,-7.11201 h 3.92853 l -5.01227,13.36606 q -0.51929,1.44498 -1.24178,2.43841 -0.72249,0.99342 -1.78364,1.49013 -1.03858,0.51929 -2.57387,0.51929 -0.58703,0 -1.016,-0.0677 -0.4064,-0.0452 -0.72249,-0.11289 v -3.00285 q 0.24835,0.0452 0.58702,0.0903 0.36124,0.0452 0.74507,0.0452 0.72249,0 1.17404,-0.29352 0.45156,-0.29351 0.74507,-0.76764 0.31609,-0.45156 0.54187,-1.016 l 0.15804,-0.42898 z m 20.30381,9.59557 q 0.58703,0 1.08374,-0.11289 0.49671,-0.11289 1.016,-0.29351 v 2.79965 q -0.6096,0.27093 -1.39982,0.45155 -0.79023,0.18063 -1.87396,0.18063 -1.15147,0 -2.05458,-0.36125 -0.88054,-0.38382 -1.39983,-1.28693 -0.49671,-0.92569 -0.49671,-2.5513 v -5.57671 h -1.58044 v -1.58045 l 1.89653,-1.2192 1.03858,-2.61902 h 2.4384 v 2.57386 h 3.29636 v 2.84481 h -3.29636 v 5.44125 q 0,0.65475 0.36125,0.99342 0.36124,0.31609 0.97084,0.31609 z m 7.9763,-9.59557 v 12.39522 h -3.81565 v -12.39522 z m -1.89653,-4.94453 q 0.83537,0 1.44497,0.38382 0.60961,0.36124 0.60961,1.39982 0,1.016 -0.60961,1.39983 -0.6096,0.36124 -1.44497,0.36124 -0.85796,0 -1.46756,-0.36124 -0.58702,-0.38383 -0.58702,-1.39983 0,-1.03858 0.58702,-1.39982 0.6096,-0.38382 1.46756,-0.38382 z m 10.32441,17.56553 q -1.8288,0 -3.20604,-0.67734 -1.35467,-0.67733 -2.12232,-2.07716 -0.74506,-1.4224 -0.74506,-3.61244 0,-2.28036 0.83537,-3.70276 0.83538,-1.42241 2.25778,-2.09974 1.44498,-0.67733 3.27379,-0.67733 1.10631,0 2.09973,0.24835 0.99342,0.22578 1.80622,0.63218 l -1.12889,2.86738 q -0.72248,-0.31609 -1.39982,-0.51929 -0.67733,-0.2032 -1.37724,-0.2032 -0.76765,0 -1.33209,0.38382 -0.56445,0.38383 -0.85796,1.15147 -0.29351,0.74507 -0.29351,1.89654 0,1.15147 0.29351,1.89653 0.31609,0.72249 0.85796,1.08374 0.56444,0.33866 1.33209,0.33866 0.92569,0 1.8288,-0.27093 0.90311,-0.27093 1.69333,-0.74507 v 3.07058 q -0.74507,0.47414 -1.67075,0.74507 -0.90312,0.27094 -2.1449,0.27094 z m 15.11091,-3.95112 q 0,1.17405 -0.54187,2.07716 -0.54186,0.88053 -1.69333,1.37724 -1.15147,0.49672 -2.95769,0.49672 -1.30951,0 -2.34809,-0.15805 -1.016,-0.15804 -2.00943,-0.56444 v -3.09316 q 1.08374,0.49671 2.25778,0.74506 1.19663,0.24836 1.96427,0.24836 0.90311,0 1.30951,-0.22578 0.4064,-0.22578 0.4064,-0.63218 0,-0.31609 -0.22577,-0.54186 -0.22578,-0.24836 -0.83538,-0.51929 -0.58703,-0.27094 -1.67076,-0.69991 -1.06116,-0.45156 -1.78365,-0.94827 -0.72249,-0.49671 -1.08373,-1.17405 -0.36125,-0.69991 -0.36125,-1.71591 0,-1.76107 1.37725,-2.66418 1.37725,-0.90311 3.63503,-0.90311 1.2192,0 2.28035,0.27093 1.06116,0.24836 2.14489,0.72249 l -1.06115,2.52871 q -0.88054,-0.4064 -1.80623,-0.63217 -0.92569,-0.24836 -1.55786,-0.24836 -0.65476,0 -1.01601,0.18062 -0.36124,0.18062 -0.36124,0.51929 0,0.29351 0.2032,0.51929 0.22578,0.2032 0.79022,0.45156 0.58703,0.24835 1.64818,0.67733 1.10632,0.42898 1.8288,0.92569 0.72249,0.49671 1.08374,1.19662 0.38382,0.69992 0.38382,1.78365 z"
       id="text2"
       aria-label="Data Analytics" />
    <path
       id="path3"
       style="baseline-shift:baseline;display:inline;overflow:visible;fill:#ffffff;stroke-width:0.396875;stroke-linejoin:round;stroke-dasharray:none;enable-background:accumulate;stop-color:#000000;fill-opacity:1"
       d="m 61.021646,78.852197 a 1.4232722,1.4232722 0 0 0 -0.711567,0.190677 l -13.799631,7.967024 a 1.4232722,1.4232722 0 0 0 -0.711841,1.23273 v 15.934322 a 1.4232722,1.4232722 0 0 0 0.711841,1.23273 l 2.132473,1.23107 v -4.83725 l 0.0022,0.001 V 89.063985 l 12.377053,-7.145667 12.376504,7.145667 V 103.3556 l -3.649552,2.10717 2.846261,1.64327 2.938266,-1.69636 a 1.4232722,1.4232722 0 0 0 0.711841,-1.23273 V 88.242628 a 1.4232722,1.4232722 0 0 0 -0.711841,-1.23273 L 61.733207,79.042874 a 1.4232722,1.4232722 0 0 0 -0.711561,-0.190677 z m -9.53247,26.145553 v 3.28655 l 8.820903,5.09268 a 1.4232722,1.4232722 0 0 0 1.423128,0 l 8.016225,-4.62822 -2.845981,-1.64299 -5.881531,3.39577 z" />
    <path
       id="path13"
       style="baseline-shift:baseline;display:inline;overflow:visible;fill:#b4dcf5;stroke:none;stroke-width:0.350573;stroke-linejoin:round;stroke-dasharray:none;stroke-opacity:1;enable-background:accumulate;stop-color:#000000;fill-opacity:1"
       d="m 44.565597,106.9401 a 1.4232722,1.4232722 0 0 0 -0.711287,0.19068 l -13.799629,7.96702 a 1.4232722,1.4232722 0 0 0 -0.711843,1.23273 v 15.93433 a 1.4232722,1.4232722 0 0 0 0.711843,1.23273 l 13.799629,7.9673 a 1.4232722,1.4232722 0 0 0 1.422853,0 l 13.800186,-7.9673 a 1.4232722,1.4232722 0 0 0 0.711841,-1.23273 v -2.45573 l -4.381127,2.52939 v -0.009 l -10.841907,6.25983 -12.377337,-7.14595 v -14.29163 l 12.377337,-7.14567 4.076765,2.35373 v -3.28598 l -3.365758,-1.94319 a 1.4232722,1.4232722 0 0 0 -0.711566,-0.19068 z m 6.923579,3.77686 v 3.28626 l 5.453479,3.14867 v 11.01424 l 2.846535,-1.64354 v -10.19206 a 1.4232722,1.4232722 0 0 0 -0.711841,-1.23273 z" />
    <path
       id="path15"
       style="baseline-shift:baseline;display:inline;overflow:visible;fill:#86c679;stroke-width:0.529167;stroke-linejoin:round;stroke-dasharray:none;enable-background:accumulate;stop-color:#000000"
       d="m 77.626118,106.92732 a 1.4232722,1.4232722 0 0 0 -0.711561,0.19067 l -2.149147,1.2408 2.845981,1.64327 0.01501,-0.009 12.376504,7.14567 v 14.29161 l -12.376504,7.14595 -12.37706,-7.14595 v -4.7736 l -2.845981,1.64299 v 3.95197 a 1.4232722,1.4232722 0 0 0 0.711846,1.23273 l 13.799354,7.9673 a 1.4232722,1.4232722 0 0 0 1.423128,0 l 13.800185,-7.9673 a 1.4232722,1.4232722 0 0 0 0.711847,-1.23273 v -15.93394 a 1.4232722,1.4232722 0 0 0 -0.71185,-1.23273 L 78.337685,107.118 a 1.4232722,1.4232722 0 0 0 -0.711567,-0.19067 z m -5.706416,3.07446 -8.804499,5.08324 a 1.4232722,1.4232722 0 0 0 -0.711846,1.23273 v 8.69554 l 2.845981,-1.64326 v -6.23092 l 9.516346,-5.49407 z" />
  </g>
</svg>
